<svg width="193" height="25" viewBox="0 0 193 25" fill="none" xmlns="http://www.w3.org/2000/svg">
<path d="M3.65625 21.5469H14.4375V24H0.640625V1.25H3.65625V21.5469ZM33.0312 1.25V16.7188C33.0208 18.8646 32.3438 20.6198 31 21.9844C29.6667 23.349 27.8542 24.1146 25.5625 24.2812L24.7656 24.3125C22.276 24.3125 20.2917 23.6406 18.8125 22.2969C17.3333 20.9531 16.5833 19.1042 16.5625 16.75V1.25H19.5312V16.6562C19.5312 18.3021 19.9844 19.5833 20.8906 20.5C21.7969 21.4062 23.0885 21.8594 24.7656 21.8594C26.4635 21.8594 27.7604 21.4062 28.6562 20.5C29.5625 19.5938 30.0156 18.3177 30.0156 16.6719V1.25H33.0312ZM45.1875 9.96875L50.6406 1.25H54.1719L46.9844 12.5312L54.3438 24H50.7812L45.1875 15.125L39.5625 24H36.0156L43.3906 12.5312L36.1875 1.25H39.7031L45.1875 9.96875ZM73.8438 1.25V16.7188C73.8333 18.8646 73.1562 20.6198 71.8125 21.9844C70.4792 23.349 68.6667 24.1146 66.375 24.2812L65.5781 24.3125C63.0885 24.3125 61.1042 23.6406 59.625 22.2969C58.1458 20.9531 57.3958 19.1042 57.375 16.75V1.25H60.3438V16.6562C60.3438 18.3021 60.7969 19.5833 61.7031 20.5C62.6094 21.4062 63.901 21.8594 65.5781 21.8594C67.276 21.8594 68.5729 21.4062 69.4688 20.5C70.375 19.5938 70.8281 18.3177 70.8281 16.6719V1.25H73.8438ZM86.9219 14.7969H81.5781V24H78.5625V1.25H86.0938C88.6562 1.25 90.625 1.83333 92 3C93.3854 4.16667 94.0781 5.86458 94.0781 8.09375C94.0781 9.51042 93.6927 10.7448 92.9219 11.7969C92.1615 12.849 91.099 13.6354 89.7344 14.1562L95.0781 23.8125V24H91.8594L86.9219 14.7969ZM81.5781 12.3438H86.1875C87.6771 12.3438 88.8594 11.9583 89.7344 11.1875C90.6198 10.4167 91.0625 9.38542 91.0625 8.09375C91.0625 6.6875 90.6406 5.60938 89.7969 4.85938C88.9635 4.10938 87.7552 3.72917 86.1719 3.71875H81.5781V12.3438ZM104.484 12.6719L110.422 1.25H113.828L105.984 15.5156V24H102.984V15.5156L95.1406 1.25H98.5781L104.484 12.6719ZM133.031 16.7812C132.75 19.1875 131.859 21.0469 130.359 22.3594C128.87 23.6615 126.885 24.3125 124.406 24.3125C121.719 24.3125 119.562 23.349 117.938 21.4219C116.323 19.4948 115.516 16.9167 115.516 13.6875V11.5C115.516 9.38542 115.891 7.52604 116.641 5.92188C117.401 4.31771 118.474 3.08854 119.859 2.23438C121.245 1.36979 122.849 0.9375 124.672 0.9375C127.089 0.9375 129.026 1.61458 130.484 2.96875C131.943 4.3125 132.792 6.17708 133.031 8.5625H130.016C129.755 6.75 129.188 5.4375 128.312 4.625C127.448 3.8125 126.234 3.40625 124.672 3.40625C122.755 3.40625 121.25 4.11458 120.156 5.53125C119.073 6.94792 118.531 8.96354 118.531 11.5781V13.7812C118.531 16.25 119.047 18.2135 120.078 19.6719C121.109 21.1302 122.552 21.8594 124.406 21.8594C126.073 21.8594 127.349 21.4844 128.234 20.7344C129.13 19.974 129.724 18.6562 130.016 16.7812H133.031ZM149.703 18.0625H140.172L138.031 24H134.938L143.625 1.25H146.25L154.953 24H151.875L149.703 18.0625ZM141.078 15.5938H148.812L144.938 4.95312L141.078 15.5938ZM166.359 14.7969H161.016V24H158V1.25H165.531C168.094 1.25 170.062 1.83333 171.438 3C172.823 4.16667 173.516 5.86458 173.516 8.09375C173.516 9.51042 173.13 10.7448 172.359 11.7969C171.599 12.849 170.536 13.6354 169.172 14.1562L174.516 23.8125V24H171.297L166.359 14.7969ZM161.016 12.3438H165.625C167.115 12.3438 168.297 11.9583 169.172 11.1875C170.057 10.4167 170.5 9.38542 170.5 8.09375C170.5 6.6875 170.078 5.60938 169.234 4.85938C168.401 4.10938 167.193 3.72917 165.609 3.71875H161.016V12.3438ZM184.438 13.8594C181.865 13.1198 179.99 12.2135 178.812 11.1406C177.646 10.0573 177.062 8.72396 177.062 7.14062C177.062 5.34896 177.776 3.86979 179.203 2.70312C180.641 1.52604 182.505 0.9375 184.797 0.9375C186.359 0.9375 187.75 1.23958 188.969 1.84375C190.198 2.44792 191.146 3.28125 191.812 4.34375C192.49 5.40625 192.828 6.56771 192.828 7.82812H189.812C189.812 6.45312 189.375 5.375 188.5 4.59375C187.625 3.80208 186.391 3.40625 184.797 3.40625C183.318 3.40625 182.161 3.73438 181.328 4.39062C180.505 5.03646 180.094 5.9375 180.094 7.09375C180.094 8.02083 180.484 8.80729 181.266 9.45312C182.057 10.0885 183.396 10.6719 185.281 11.2031C187.177 11.7344 188.656 12.3229 189.719 12.9688C190.792 13.6042 191.583 14.349 192.094 15.2031C192.615 16.0573 192.875 17.0625 192.875 18.2188C192.875 20.0625 192.156 21.5417 190.719 22.6562C189.281 23.7604 187.359 24.3125 184.953 24.3125C183.391 24.3125 181.932 24.0156 180.578 23.4219C179.224 22.8177 178.177 21.9948 177.438 20.9531C176.708 19.9115 176.344 18.7292 176.344 17.4062H179.359C179.359 18.7812 179.865 19.8698 180.875 20.6719C181.896 21.4635 183.255 21.8594 184.953 21.8594C186.536 21.8594 187.75 21.5365 188.594 20.8906C189.438 20.2448 189.859 19.3646 189.859 18.25C189.859 17.1354 189.469 16.276 188.688 15.6719C187.906 15.0573 186.49 14.4531 184.438 13.8594Z" fill="white"/>
</svg>
