<svg width="118" height="24" viewBox="0 0 118 24" fill="none" xmlns="http://www.w3.org/2000/svg">
<path d="M3.24219 16.1602H11.3281V18H0.980469V0.9375H3.24219V16.1602ZM20.8672 16.7461C20.0234 17.7383 18.7852 18.2344 17.1523 18.2344C15.8008 18.2344 14.7695 17.8438 14.0586 17.0625C13.3555 16.2734 13 15.1094 12.9922 13.5703V5.32031H15.1602V13.5117C15.1602 15.4336 15.9414 16.3945 17.5039 16.3945C19.1602 16.3945 20.2617 15.7773 20.8086 14.543V5.32031H22.9766V18H20.9141L20.8672 16.7461ZM30.5352 9.94922L33.3477 5.32031H35.8789L31.7305 11.5898L36.0078 18H33.5L30.5703 13.2539L27.6406 18H25.1211L29.3984 11.5898L25.25 5.32031H27.7578L30.5352 9.94922ZM46.0156 16.7461C45.1719 17.7383 43.9336 18.2344 42.3008 18.2344C40.9492 18.2344 39.918 17.8438 39.207 17.0625C38.5039 16.2734 38.1484 15.1094 38.1406 13.5703V5.32031H40.3086V13.5117C40.3086 15.4336 41.0898 16.3945 42.6523 16.3945C44.3086 16.3945 45.4102 15.7773 45.957 14.543V5.32031H48.125V18H46.0625L46.0156 16.7461ZM57.5586 7.26562C57.2305 7.21094 56.875 7.18359 56.4922 7.18359C55.0703 7.18359 54.1055 7.78906 53.5977 9V18H51.4297V5.32031H53.5391L53.5742 6.78516C54.2852 5.65234 55.293 5.08594 56.5977 5.08594C57.0195 5.08594 57.3398 5.14062 57.5586 5.25V7.26562ZM63.9219 14.8242L66.875 5.32031H69.1953L64.0977 19.957C63.3086 22.0664 62.0547 23.1211 60.3359 23.1211L59.9258 23.0859L59.1172 22.9336V21.1758L59.7031 21.2227C60.4375 21.2227 61.0078 21.0742 61.4141 20.7773C61.8281 20.4805 62.168 19.9375 62.4336 19.1484L62.9141 17.8594L58.3906 5.32031H60.7578L63.9219 14.8242ZM84.0312 12.5859C83.8203 14.3906 83.1523 15.7852 82.0273 16.7695C80.9102 17.7461 79.4219 18.2344 77.5625 18.2344C75.5469 18.2344 73.9297 17.5117 72.7109 16.0664C71.5 14.6211 70.8945 12.6875 70.8945 10.2656V8.625C70.8945 7.03906 71.1758 5.64453 71.7383 4.44141C72.3086 3.23828 73.1133 2.31641 74.1523 1.67578C75.1914 1.02734 76.3945 0.703125 77.7617 0.703125C79.5742 0.703125 81.0273 1.21094 82.1211 2.22656C83.2148 3.23438 83.8516 4.63281 84.0312 6.42188H81.7695C81.5742 5.0625 81.1484 4.07812 80.4922 3.46875C79.8438 2.85938 78.9336 2.55469 77.7617 2.55469C76.3242 2.55469 75.1953 3.08594 74.375 4.14844C73.5625 5.21094 73.1562 6.72266 73.1562 8.68359V10.3359C73.1562 12.1875 73.543 13.6602 74.3164 14.7539C75.0898 15.8477 76.1719 16.3945 77.5625 16.3945C78.8125 16.3945 79.7695 16.1133 80.4336 15.5508C81.1055 14.9805 81.5508 13.9922 81.7695 12.5859H84.0312ZM94.6016 18C94.4766 17.75 94.375 17.3047 94.2969 16.6641C93.2891 17.7109 92.0859 18.2344 90.6875 18.2344C89.4375 18.2344 88.4102 17.8828 87.6055 17.1797C86.8086 16.4688 86.4102 15.5703 86.4102 14.4844C86.4102 13.1641 86.9102 12.1406 87.9102 11.4141C88.918 10.6797 90.332 10.3125 92.1523 10.3125H94.2617V9.31641C94.2617 8.55859 94.0352 7.95703 93.582 7.51172C93.1289 7.05859 92.4609 6.83203 91.5781 6.83203C90.8047 6.83203 90.1562 7.02734 89.6328 7.41797C89.1094 7.80859 88.8477 8.28125 88.8477 8.83594H86.668C86.668 8.20312 86.8906 7.59375 87.3359 7.00781C87.7891 6.41406 88.3984 5.94531 89.1641 5.60156C89.9375 5.25781 90.7852 5.08594 91.707 5.08594C93.168 5.08594 94.3125 5.45312 95.1406 6.1875C95.9688 6.91406 96.3984 7.91797 96.4297 9.19922V15.0352C96.4297 16.1992 96.5781 17.125 96.875 17.8125V18H94.6016ZM91.0039 16.3477C91.6836 16.3477 92.3281 16.1719 92.9375 15.8203C93.5469 15.4688 93.9883 15.0117 94.2617 14.4492V11.8477H92.5625C89.9062 11.8477 88.5781 12.625 88.5781 14.1797C88.5781 14.8594 88.8047 15.3906 89.2578 15.7734C89.7109 16.1562 90.293 16.3477 91.0039 16.3477ZM105.957 7.26562C105.629 7.21094 105.273 7.18359 104.891 7.18359C103.469 7.18359 102.504 7.78906 101.996 9V18H99.8281V5.32031H101.938L101.973 6.78516C102.684 5.65234 103.691 5.08594 104.996 5.08594C105.418 5.08594 105.738 5.14062 105.957 5.25V7.26562ZM115.344 14.6367C115.344 14.0508 115.121 13.5977 114.676 13.2773C114.238 12.9492 113.469 12.668 112.367 12.4336C111.273 12.1992 110.402 11.918 109.754 11.5898C109.113 11.2617 108.637 10.8711 108.324 10.418C108.02 9.96484 107.867 9.42578 107.867 8.80078C107.867 7.76172 108.305 6.88281 109.18 6.16406C110.062 5.44531 111.188 5.08594 112.555 5.08594C113.992 5.08594 115.156 5.45703 116.047 6.19922C116.945 6.94141 117.395 7.89062 117.395 9.04688H115.215C115.215 8.45312 114.961 7.94141 114.453 7.51172C113.953 7.08203 113.32 6.86719 112.555 6.86719C111.766 6.86719 111.148 7.03906 110.703 7.38281C110.258 7.72656 110.035 8.17578 110.035 8.73047C110.035 9.25391 110.242 9.64844 110.656 9.91406C111.07 10.1797 111.816 10.4336 112.895 10.6758C113.98 10.918 114.859 11.207 115.531 11.543C116.203 11.8789 116.699 12.2852 117.02 12.7617C117.348 13.2305 117.512 13.8047 117.512 14.4844C117.512 15.6172 117.059 16.5273 116.152 17.2148C115.246 17.8945 114.07 18.2344 112.625 18.2344C111.609 18.2344 110.711 18.0547 109.93 17.6953C109.148 17.3359 108.535 16.8359 108.09 16.1953C107.652 15.5469 107.434 14.8477 107.434 14.0977H109.602C109.641 14.8242 109.93 15.4023 110.469 15.832C111.016 16.2539 111.734 16.4648 112.625 16.4648C113.445 16.4648 114.102 16.3008 114.594 15.9727C115.094 15.6367 115.344 15.1914 115.344 14.6367Z" fill="black"/>
</svg>
